<svg width="143" height="141" viewBox="0 0 143 141" fill="none" xmlns="http://www.w3.org/2000/svg">
<circle cx="64.5" cy="44.5" r="44.5" fill="#FC1616"/>
<rect x="90" y="39" width="4" height="11" rx="2" fill="#F7F250"/>
<rect x="84" y="37" width="4" height="15" rx="2" fill="#F7F250"/>
<rect x="78" y="31" width="4" height="26" rx="2" fill="#F7F250"/>
<rect x="72" y="37" width="4" height="15" rx="2" fill="#F7F250"/>
<rect x="66" y="31" width="4" height="26" rx="2" fill="#F7F250"/>
<rect x="54" y="31" width="4" height="26" rx="2" fill="#F7F250"/>
<rect x="60" y="37" width="4" height="15" rx="2" fill="#F7F250"/>
<rect x="47" y="21" width="4" height="47" rx="2" fill="#F7F250"/>
<rect x="41" y="31" width="4" height="27" rx="2" fill="#F7F250"/>
<rect x="35" y="39" width="4" height="11" rx="2" fill="#F7F250"/>
<path d="M6.624 130.36C4.704 130.36 3.252 129.82 2.268 128.74C1.284 127.636 0.792 126.064 0.792 124.024V122.584H4.536V124.312C4.536 125.944 5.22 126.76 6.588 126.76C7.26 126.76 7.764 126.568 8.1 126.184C8.46 125.776 8.64 125.128 8.64 124.24C8.64 123.184 8.4 122.26 7.92 121.468C7.44 120.652 6.552 119.68 5.256 118.552C3.624 117.112 2.484 115.816 1.836 114.664C1.188 113.488 0.864 112.168 0.864 110.704C0.864 108.712 1.368 107.176 2.376 106.096C3.384 104.992 4.848 104.44 6.768 104.44C8.664 104.44 10.092 104.992 11.052 106.096C12.036 107.176 12.528 108.736 12.528 110.776V111.82H8.784V110.524C8.784 109.66 8.616 109.036 8.28 108.652C7.944 108.244 7.452 108.04 6.804 108.04C5.484 108.04 4.824 108.844 4.824 110.452C4.824 111.364 5.064 112.216 5.544 113.008C6.048 113.8 6.948 114.76 8.244 115.888C9.9 117.328 11.04 118.636 11.664 119.812C12.288 120.988 12.6 122.368 12.6 123.952C12.6 126.016 12.084 127.6 11.052 128.704C10.044 129.808 8.568 130.36 6.624 130.36ZM25.6345 130.36C23.6905 130.36 22.2025 129.808 21.1705 128.704C20.1385 127.6 19.6225 126.04 19.6225 124.024V110.776C19.6225 108.76 20.1385 107.2 21.1705 106.096C22.2025 104.992 23.6905 104.44 25.6345 104.44C27.5785 104.44 29.0665 104.992 30.0985 106.096C31.1305 107.2 31.6465 108.76 31.6465 110.776V124.024C31.6465 126.04 31.1305 127.6 30.0985 128.704C29.0665 129.808 27.5785 130.36 25.6345 130.36ZM25.6345 126.76C27.0025 126.76 27.6865 125.932 27.6865 124.276V110.524C27.6865 108.868 27.0025 108.04 25.6345 108.04C24.2665 108.04 23.5825 108.868 23.5825 110.524V124.276C23.5825 125.932 24.2665 126.76 25.6345 126.76ZM39.3646 104.8H43.3246V126.4H49.8406V130H39.3646V104.8ZM57.0631 108.4H52.9231V104.8H65.1631V108.4H61.0231V130H57.0631V108.4ZM77.8804 130.36C75.9604 130.36 74.4964 129.82 73.4884 128.74C72.4804 127.636 71.9764 126.064 71.9764 124.024V104.8H75.9364V124.312C75.9364 125.176 76.1044 125.8 76.4404 126.184C76.8004 126.568 77.3044 126.76 77.9524 126.76C78.6004 126.76 79.0924 126.568 79.4284 126.184C79.7884 125.8 79.9684 125.176 79.9684 124.312V104.8H83.7844V124.024C83.7844 126.064 83.2804 127.636 82.2724 128.74C81.2644 129.82 79.8004 130.36 77.8804 130.36ZM91.6447 104.8H96.6127L100.465 119.884H100.537V104.8H104.065V130H99.9967L95.2447 111.604H95.1727V130H91.6447V104.8ZM112.048 104.8H122.848V108.4H116.008V115.06H121.444V118.66H116.008V126.4H122.848V130H112.048V104.8ZM135.384 130.36C133.464 130.36 132.012 129.82 131.028 128.74C130.044 127.636 129.552 126.064 129.552 124.024V122.584H133.296V124.312C133.296 125.944 133.98 126.76 135.348 126.76C136.02 126.76 136.524 126.568 136.86 126.184C137.22 125.776 137.4 125.128 137.4 124.24C137.4 123.184 137.16 122.26 136.68 121.468C136.2 120.652 135.312 119.68 134.016 118.552C132.384 117.112 131.244 115.816 130.596 114.664C129.948 113.488 129.624 112.168 129.624 110.704C129.624 108.712 130.128 107.176 131.136 106.096C132.144 104.992 133.608 104.44 135.528 104.44C137.424 104.44 138.852 104.992 139.812 106.096C140.796 107.176 141.288 108.736 141.288 110.776V111.82H137.544V110.524C137.544 109.66 137.376 109.036 137.04 108.652C136.704 108.244 136.212 108.04 135.564 108.04C134.244 108.04 133.584 108.844 133.584 110.452C133.584 111.364 133.824 112.216 134.304 113.008C134.808 113.8 135.708 114.76 137.004 115.888C138.66 117.328 139.8 118.636 140.424 119.812C141.048 120.988 141.36 122.368 141.36 123.952C141.36 126.016 140.844 127.6 139.812 128.704C138.804 129.808 137.328 130.36 135.384 130.36Z" fill="#FC1616"/>
</svg>
